<svg width="40" height="41" viewBox="0 0 40 41" fill="none" xmlns="http://www.w3.org/2000/svg">
<g id="pdf-file 1" clip-path="url(#clip0_778_87)">
<g id="Group">
<path id="Vector" d="M11.7829 26.6078C11.7829 25.9435 11.3219 25.5474 10.5086 25.5474C10.1765 25.5474 9.95163 25.5801 9.83398 25.6115V27.7428C9.97328 27.7742 10.1445 27.7847 10.3805 27.7847C11.2474 27.7847 11.7829 27.3467 11.7829 26.6078Z" fill="white"/>
<path id="Vector_2" d="M16.8174 25.5697C16.4532 25.5697 16.2178 25.6011 16.0786 25.6337V30.354C16.2179 30.3867 16.4428 30.3867 16.6462 30.3867C18.1237 30.3972 19.0873 29.5839 19.0873 27.8606C19.0977 26.362 18.2197 25.5697 16.8174 25.5697Z" fill="white"/>
<path id="Vector_3" d="M26.1715 0.873047H10.1059C7.75885 0.873047 5.84862 2.78461 5.84862 5.13032V20.873H5.4328C4.48553 20.873 3.71729 21.6405 3.71729 22.5886V32.9925C3.71729 33.9405 4.48544 34.708 5.4328 34.708H5.84862V36.6157C5.84862 38.964 7.75885 40.873 10.1059 40.873H32.0267C34.3723 40.873 36.2828 38.9639 36.2828 36.6157V10.9489L26.1715 0.873047ZM8.2178 24.4661C8.72056 24.3812 9.42725 24.3171 10.4229 24.3171C11.4291 24.3171 12.1462 24.5092 12.6281 24.8949C13.0883 25.2585 13.399 25.8586 13.399 26.5648C13.399 27.2708 13.1636 27.871 12.7353 28.2776C12.1783 28.8019 11.3546 29.0373 10.3909 29.0373C10.1765 29.0373 9.98426 29.0267 9.83393 29.0059V31.5857H8.2178V24.4661ZM32.0267 38.2658H10.1059C9.1971 38.2658 8.45707 37.5257 8.45707 36.6157V34.708H28.8918C29.8392 34.708 30.6074 33.9405 30.6074 32.9925V22.5886C30.6074 21.6405 29.8392 20.873 28.8918 20.873H8.45707V5.13032C8.45707 4.22286 9.19719 3.48283 10.1059 3.48283L25.1961 3.46707V9.04495C25.1961 10.6742 26.518 11.9974 28.1485 11.9974L33.6127 11.9817L33.6741 36.6156C33.6741 37.5257 32.9354 38.2658 32.0267 38.2658ZM14.4411 31.553V24.4661C15.0405 24.3707 15.8217 24.3171 16.6462 24.3171C18.0165 24.3171 18.905 24.5629 19.6012 25.0872C20.3505 25.6442 20.8211 26.5321 20.8211 27.8068C20.8211 29.1876 20.3184 30.1408 19.622 30.7291C18.8623 31.3606 17.7059 31.6601 16.2931 31.6601C15.4471 31.6601 14.8477 31.6065 14.4411 31.553ZM26.1246 27.3571V28.6842H23.5336V31.5857H21.8959V24.3707H26.3062V25.7082H23.5336V27.3571H26.1246Z" fill="white"/>
</g>
</g>
<defs>
<clipPath id="clip0_778_87">
<rect width="40" height="40" fill="white" transform="translate(0 0.873047)"/>
</clipPath>
</defs>
</svg>
