<svg width="40" height="41" viewBox="0 0 40 41" fill="none" xmlns="http://www.w3.org/2000/svg">
<g id="key (1) 1">
<g id="Icon">
<path id="Vector" d="M19.1667 21.2797C24.2293 21.2797 28.3333 17.1757 28.3333 12.113C28.3333 7.05044 24.2293 2.94638 19.1667 2.94638C14.1041 2.94638 10 7.05044 10 12.113C10 17.1757 14.1041 21.2797 19.1667 21.2797Z" fill="white"/>
<path id="Vector_2" fill-rule="evenodd" clip-rule="evenodd" d="M18.7502 37.133V33.708C18.7502 32.933 19.0568 32.1914 19.6052 31.6447L22.9218 28.328C22.8402 26.5214 23.3468 24.6914 24.4352 23.1514C22.7802 22.8697 21.0085 22.7164 19.1668 22.7164C13.6302 22.7164 8.7285 24.1014 5.68516 26.1764C3.3635 27.7597 2.0835 29.7714 2.0835 31.883V34.2997C2.0835 35.0514 2.38183 35.773 2.9135 36.303C3.44516 36.8347 4.16516 37.133 4.91683 37.133H18.7502Z" fill="white"/>
<path id="Vector_3" fill-rule="evenodd" clip-rule="evenodd" d="M30.2537 34.5531C32.2737 34.8564 34.4087 34.2297 35.9637 32.6747C38.567 30.0714 38.567 25.8447 35.9637 23.2431C33.362 20.6397 29.1353 20.6397 26.532 23.2431C24.977 24.7981 24.3503 26.9331 24.6537 28.9547L20.7837 32.8231C20.5487 33.0581 20.417 33.3764 20.417 33.7081V37.5397C20.417 38.2297 20.977 38.7897 21.667 38.7897H25.4987C25.8303 38.7897 26.1487 38.6581 26.3837 38.4231L30.2537 34.5531ZM29.9703 29.2364C29.2653 28.5314 29.2653 27.3864 29.9703 26.6814C30.6753 25.9764 31.8203 25.9764 32.5253 26.6814C33.2303 27.3864 33.2303 28.5314 32.5253 29.2364C31.8203 29.9414 30.6753 29.9414 29.9703 29.2364Z" fill="white"/>
</g>
</g>
</svg>
