<svg width="40" height="41" viewBox="0 0 40 41" fill="none" xmlns="http://www.w3.org/2000/svg">
<g id="wallet 1" clip-path="url(#clip0_778_83)">
<path id="Vector" d="M28.7832 9.22138L25.2449 3.15971C25.0765 2.87138 24.7999 2.66138 24.4765 2.57805C24.1549 2.49805 23.8099 2.54471 23.5232 2.71638L12.7065 9.20638L28.7832 9.22138Z" fill="white"/>
<path id="Vector_2" d="M5 10.873C4.08333 10.873 3.33333 10.123 3.33333 9.20638C3.33333 8.28971 4.08333 7.53971 5 7.53971H10.6167L16.1833 4.20638H5C2.53333 4.20638 0.483333 6.00638 0.0833333 8.37305C0.05 8.50638 0 8.63971 0 8.78971V34.2064C0 36.9564 2.25 39.2064 5 39.2064H33.3333C35.1667 39.2064 36.6667 37.7064 36.6667 35.873V32.5397H32.5C28.3667 32.5397 25 29.173 25 25.0397C25 20.9064 28.3667 17.5397 32.5 17.5397H36.6667V14.2064C36.6667 12.373 35.1667 10.873 33.3333 10.873H5ZM31.6667 7.53971C31.6667 5.85638 30.4167 4.45638 28.7833 4.23971L31.6667 9.20638V7.53971Z" fill="white"/>
<path id="Vector_3" d="M38.75 20.0397H32.5C29.7433 20.0397 27.5 22.283 27.5 25.0397C27.5 27.7964 29.7433 30.0397 32.5 30.0397H38.75C39.44 30.0397 40 29.4797 40 28.7897V21.2897C40 20.5997 39.44 20.0397 38.75 20.0397ZM32.5 26.7064C31.58 26.7064 30.8333 25.9597 30.8333 25.0397C30.8333 24.1197 31.58 23.373 32.5 23.373C33.42 23.373 34.1667 24.1197 34.1667 25.0397C34.1667 25.9597 33.42 26.7064 32.5 26.7064Z" fill="white"/>
</g>
<defs>
<clipPath id="clip0_778_83">
<rect width="40" height="40" fill="white" transform="translate(0 0.873047)"/>
</clipPath>
</defs>
</svg>
