<svg width="91" height="64" viewBox="0 0 91 64" fill="none" xmlns="http://www.w3.org/2000/svg">
<path fill-rule="evenodd" clip-rule="evenodd" d="M22.7705 40.5659C23.1121 40.9319 23.722 41.127 24.1123 41.2978C25.0394 41.6881 25.8932 42.2249 26.7959 42.6396C27.0886 42.786 28.406 43.0787 28.2108 43.591C28.0645 43.9326 27.5278 44.0058 27.1862 44.0302C26.186 44.1278 25.1369 44.0058 24.1123 44.0058C21.2579 44.0302 18.062 44.8109 16.3299 47.1285C16.2079 47.2749 15.964 47.5676 15.72 47.8848C12.5973 46.6406 9.69416 44.7865 7.18136 42.298C0.496813 35.6867 -1.50366 26.3674 1.10673 18.1459C0.204068 23.9521 2.00938 30.0756 6.62025 34.6377C10.9872 38.9802 16.9398 40.9563 22.7705 40.5659ZM51.2164 24.3425C50.6065 25.0744 50.021 25.8306 49.5819 26.5869C48.972 27.6847 48.7036 28.9046 48.1913 30.0512C47.7522 31.027 46.9959 31.8809 46.6056 32.8811C46.264 33.7106 46.2396 34.5889 45.8493 35.4183C45.5077 36.1502 44.7758 36.6381 44.3855 37.37C43.6536 38.7362 42.751 39.8828 41.7995 41.1026C41.4336 41.5906 41.1408 42.1761 40.6041 42.5176C39.0427 43.4691 37.213 41.371 35.8468 40.8587C34.7246 40.4439 33.5536 40.1268 32.4558 39.6877C31.6995 39.3949 30.9188 39.029 30.1137 38.7362C32.0654 37.8579 33.8952 36.6625 35.5297 35.15C43.6536 27.6604 43.8732 15.2915 36.042 7.53353C31.4555 2.99584 25.0881 1.01975 18.9891 1.70284C27.6985 -0.517209 37.3594 1.72724 44.044 8.3386C48.606 12.8275 50.9725 18.5606 51.2164 24.3425Z" fill="url(#paint0_linear_714_12889)"/>
<path fill-rule="evenodd" clip-rule="evenodd" d="M29.9428 44.323C29.9428 44.323 31.431 41.8346 29.1377 40.9075C26.8445 40.0049 22.0384 40.0781 21.1846 40.5904C22.6971 41.2247 29.9428 44.323 29.9428 44.323Z" fill="url(#paint1_linear_714_12889)"/>
<path fill-rule="evenodd" clip-rule="evenodd" d="M22.0877 59.2047C22.0877 59.2047 20.4531 56.7895 18.2087 57.9605C15.9643 59.1315 13.3783 62.3274 13.1587 63.7912C13.1587 63.8156 21.4534 59.5706 22.0877 59.2047Z" fill="url(#paint2_linear_714_12889)"/>
<path fill-rule="evenodd" clip-rule="evenodd" d="M22.5504 54.0083C22.5504 54.0083 20.9403 51.3491 18.3299 52.3006C15.6951 53.252 14.4509 54.4718 14.0605 55.3257L22.5504 54.0083Z" fill="url(#paint3_linear_714_12889)"/>
<path fill-rule="evenodd" clip-rule="evenodd" d="M23.722 49.5193C23.722 49.5193 23.2097 46.3478 21.0629 46.543C17.1107 46.9089 15.5737 48.7386 14.915 49.2997C17.4278 49.5193 23.722 49.5193 23.722 49.5193Z" fill="url(#paint4_linear_714_12889)"/>
<path d="M13.7192 63.791C14.7194 62.9616 19.3059 60.9855 22.9653 59.3753C24.8682 58.5459 26.6735 57.7652 27.8933 57.1797C31.5284 55.4476 46.1905 51.3246 46.3368 51.2758C46.3856 51.2514 46.4344 51.2514 46.4832 51.2026C47.825 51.1538 49.0448 50.8855 50.3866 50.6171C51.2161 50.4463 52.0699 50.2756 53.0458 50.1292C56.0465 49.6657 57.1443 48.4459 58.2178 47.2748C58.4373 47.0309 58.6813 46.7625 58.9496 46.4942C60.1451 45.3232 61.2185 44.0058 62.2675 42.7128C62.6579 42.2248 63.0726 41.7369 63.4629 41.249C70.1963 33.2714 77.2224 27.4652 89.6644 25.0743C89.9328 25.0255 90.1035 24.7572 90.0547 24.5132C90.0059 24.2449 89.7376 24.0741 89.4936 24.1229C76.7832 26.5625 69.5864 32.4908 62.731 40.6391C62.3163 41.127 61.926 41.6149 61.5112 42.1029C60.4866 43.3471 59.4376 44.6645 58.2666 45.7867C57.9982 46.055 57.7542 46.3234 57.5103 46.5917C56.4612 47.7384 55.583 48.7386 52.9238 49.1289C51.9235 49.2753 51.0697 49.4705 50.2158 49.6413C48.5325 49.9828 47.0199 50.3 45.2146 50.2024C44.7511 50.0804 44.1168 49.9828 43.3361 49.8852C43.2141 49.8608 43.0677 49.8608 42.9214 49.8364C40.6037 49.2509 38.4081 48.0799 36.8955 47.2504C36.4808 47.0309 36.1148 46.8357 35.8221 46.6893C35.139 46.3478 31.9675 44.7864 28.8936 43.2495C27.2102 42.42 25.5269 41.5661 24.2583 40.9562C23.624 40.6391 23.1117 40.3951 22.7457 40.2C22.7213 40.1756 22.6726 40.1756 22.6482 40.1512C23.0873 39.5901 24.2827 38.7118 27.3322 38.7362C31.0892 38.785 32.9677 40.0292 33.9924 40.7123C34.2363 40.883 34.4315 41.005 34.6267 41.0782C34.8218 41.1514 35.0414 41.2734 35.3098 41.3954C36.1636 41.7857 37.4322 42.3956 39.0668 43.0543C41.3112 43.957 42.4578 44.3473 46.1661 44.1033C49.8987 43.8594 52.2895 42.8835 53.2409 41.2246C54.168 39.5901 54.0704 38.3215 53.8752 36.199L53.8752 36.1258C53.6801 33.8326 53.4117 30.7099 56.1441 27.4164C58.9252 24.0741 59.8767 22.9519 66.3661 21.1466C66.6344 21.0734 66.7808 20.805 66.7076 20.5367C66.6344 20.2683 66.3661 20.1219 66.0977 20.1951C59.3156 22.0736 58.2422 23.3422 55.3878 26.7821C52.3871 30.3683 52.6798 33.8814 52.875 36.199L52.875 36.2722C53.0702 38.419 53.119 39.4193 52.3627 40.7367C51.582 42.1029 49.4595 42.9079 46.0685 43.1275C43.3605 43.2983 42.1163 43.1275 40.8233 42.6884C40.8721 42.6396 40.9209 42.5664 40.9697 42.5176C41.8235 41.5417 43.2385 39.9316 44.4095 38.2239C44.6779 38.0531 44.8243 37.6872 44.9219 37.4188C44.9462 37.37 44.9463 37.3212 44.9706 37.3212C45.0926 37.1016 45.2878 36.9309 45.5074 36.7357C45.7269 36.5405 45.9221 36.3454 46.1173 36.077C46.9711 34.8816 47.5078 33.4422 47.9958 32.076C48.4349 30.905 48.874 29.6608 49.5327 28.6118C49.7279 28.319 49.8987 28.0263 50.0938 27.7335C51.5332 25.4403 53.0214 23.0495 54.8755 21.0246C54.9731 20.9026 55.339 20.6586 55.6806 20.4391C56.8272 19.6584 57.5835 19.0973 57.5835 18.4874C57.5835 18.2922 57.4859 18.1214 57.3395 18.0239C56.7296 17.5847 54.0948 17.9995 53.9728 18.0239C53.2653 18.2434 51.9967 18.7313 50.5818 19.3169C50.5818 19.3412 50.5818 19.3656 50.5818 19.39C50.6062 19.6828 50.6549 19.9999 50.6793 20.3171C52.1675 19.7072 53.5337 19.1705 54.2412 18.9509C54.5095 18.8777 55.6074 18.7801 56.2905 18.7801C55.9489 19.0729 55.4366 19.4388 55.1194 19.634C54.6315 19.9755 54.3144 20.1707 54.1436 20.3659C52.2163 22.464 50.7281 24.8792 49.2644 27.2212C49.0692 27.514 48.8984 27.8067 48.7033 28.0995C47.9958 29.2461 47.5322 30.5147 47.0687 31.7345C46.5564 33.1007 46.0929 34.3937 45.3122 35.4915C45.1902 35.6623 45.0194 35.833 44.8243 36.0038C44.5803 36.2234 44.312 36.4917 44.1168 36.8089C44.068 36.8821 44.0436 36.9553 43.9948 37.0773C43.9704 37.1504 43.9216 37.2724 43.8728 37.37C43.7996 37.3944 43.7264 37.4676 43.6777 37.5408C42.5066 39.2485 41.0673 40.9074 40.189 41.8833C40.0426 42.0541 39.9206 42.2004 39.7987 42.3224C39.6523 42.2736 39.5059 42.2004 39.3351 42.1273C37.7494 41.493 36.4808 40.883 35.6513 40.4927C35.383 40.3707 35.1634 40.2488 34.9682 40.1756C34.8706 40.1268 34.6755 40.0048 34.4803 39.8828C33.4557 39.1997 31.3332 37.8091 27.3078 37.7603C22.8921 37.6872 21.7455 39.5169 21.5015 40.1268C21.4284 40.2488 21.4284 40.3951 21.5015 40.5415C21.5503 40.6635 21.6479 40.7611 21.7699 40.7855C21.9895 40.8831 24.5267 42.1517 27.1371 43.4446C25.0146 43.4203 21.9163 43.4446 20.3793 43.8594C17.5494 44.5913 15.4757 46.3722 14.695 48.763C14.6462 48.9094 14.6706 49.0558 14.7438 49.1533C14.817 49.2753 14.939 49.3485 15.0854 49.3729C15.6465 49.4705 16.5247 49.5437 17.5738 49.5925C14.6218 51.2514 13.9875 54.5693 13.9875 54.5937C13.9631 54.8133 14.0851 55.0328 14.2803 55.1304C14.3779 55.1548 14.4755 55.1792 14.5486 55.1548C14.695 55.1304 15.4513 55.0816 16.354 55.0084C17.1102 54.9352 18.0373 54.862 18.9887 54.7889C13.3532 57.692 13.0849 61.5954 12.9873 62.986C12.9873 63.108 12.9629 63.2055 12.9629 63.2787C12.9629 63.3031 12.9629 63.3275 12.9629 63.3519C12.9629 63.5227 13.0605 63.6935 13.2069 63.7666C13.3532 63.9374 13.5728 63.9374 13.7192 63.791ZM30.089 48.8606C29.7962 48.8606 29.1132 48.8606 28.1861 48.8606C24.9658 48.8606 18.5008 48.8606 15.8172 48.5678C16.6223 46.7869 18.33 45.4451 20.5989 44.8596C22.7457 44.2985 28.552 44.5181 29.1863 44.5425C31.9919 45.9331 34.7243 47.2992 35.3586 47.6164C35.6269 47.7384 35.9929 47.9335 36.3832 48.1531C37.1151 48.5434 38.0421 49.0558 39.0912 49.5193C35.4805 49.2021 30.9673 48.885 30.089 48.8606ZM20.4769 49.7876C23.1605 49.8364 26.1368 49.8364 28.1861 49.8364C29.1132 49.8364 29.7962 49.8364 30.0646 49.8364C31.2844 49.8608 39.7011 50.4951 42.653 50.8123C36.9687 51.5686 25.039 53.1787 23.9168 53.3739C22.9165 53.5447 18.7448 53.8862 16.2564 54.1058C15.7684 54.1546 15.4025 54.179 15.1097 54.2034C15.5245 52.9348 16.8663 50.1536 20.4769 49.7876ZM21.5015 54.7889C21.5991 54.7401 21.6967 54.6913 21.7455 54.5937C22.7945 54.4961 23.6728 54.3985 24.0631 54.3253C24.9902 54.179 33.602 53.0079 39.6767 52.1785C35.1878 53.5203 29.6011 55.2768 27.4786 56.277C26.2588 56.8625 24.4779 57.6432 22.575 58.4727C19.2083 59.9365 15.7441 61.449 13.9875 62.4493C14.2071 60.6927 15.2317 57.1797 21.5015 54.7889Z" fill="url(#paint5_linear_714_12889)"/>
<path d="M34.0415 28.4167C34.9685 27.9044 36.1639 27.3433 37.5545 26.6846C38.6767 26.1479 39.9697 25.538 41.3359 24.8549C41.3603 24.5133 41.4091 24.1474 41.4823 23.8058C41.4823 23.7571 41.5067 23.7083 41.5311 23.6595C39.9209 24.4889 38.4328 25.1964 37.1398 25.7819C36.969 25.8551 36.8226 25.9283 36.6762 26.0015C36.8226 25.1232 36.6762 23.8058 36.5299 23.3911L36.5055 23.3423C36.3103 22.6836 36.1639 22.1713 35.676 22.1713C35.4076 22.1713 35.1881 22.3909 35.1881 22.6592C35.1881 22.8056 35.2613 22.952 35.3588 23.0252C35.3832 23.0984 35.4564 23.2691 35.554 23.6107C35.5784 23.6595 35.5784 23.6839 35.5784 23.7083C35.7004 24.0986 35.8224 25.66 35.6028 26.1235C35.554 26.2455 35.554 26.3918 35.6028 26.5138C34.8221 26.8798 34.1391 27.2213 33.5535 27.5385C31.4799 28.6363 29.2598 28.9778 26.9422 28.5631C26.9178 28.5631 26.869 28.5631 26.8446 28.5631C26.8202 28.5387 26.7958 28.5387 26.7714 28.5143C26.6982 28.4411 26.6006 28.3923 26.5518 28.3435C26.2103 28.124 25.9419 27.9044 25.7468 27.636C25.5272 27.3189 25.3076 26.831 25.8931 26.0991C26.0151 25.9527 26.1371 25.8063 26.3079 25.6843C26.5031 25.5136 26.7714 25.3672 27.0398 25.2208C27.1861 25.1476 27.3569 25.05 27.5033 24.9525C30.6016 23.0496 32.4313 21.9273 33.0656 21.5126C33.2608 21.3906 33.5291 21.2199 33.8219 21.0003C35.554 19.8537 38.7987 17.7068 41.1407 15.8527C41.0676 15.7063 40.9944 15.5112 40.9212 15.3648C40.8968 15.2916 40.8724 15.2428 40.848 15.1696C40.848 15.1452 40.8236 15.1208 40.8236 15.0964C40.7992 15.0232 40.7992 14.9744 40.7748 14.9012C38.4572 16.7797 35.0661 19.0242 33.2852 20.1952C32.968 20.3904 32.6997 20.5856 32.5045 20.7075C31.8946 21.1223 30.0893 22.2445 26.991 24.1474C26.8446 24.2206 26.7226 24.3182 26.5762 24.3914C26.2591 24.5621 25.9419 24.7329 25.6736 24.9769C25.4784 25.1476 25.2832 25.3428 25.1369 25.5136C24.405 26.4162 24.3562 27.3677 24.9417 28.2216C25.21 28.5875 25.576 28.929 26.0395 29.1974C26.0883 29.2218 26.1371 29.2706 26.1859 29.295C26.4299 29.4902 26.6982 29.6853 26.991 29.5633C29.455 29.9781 31.8214 29.5877 34.0415 28.4167Z" fill="url(#paint6_linear_714_12889)"/>
<path d="M46.4346 11.0223C46.5566 11.1443 46.6785 11.2419 46.7761 11.3882C46.8737 11.5346 46.9957 11.6566 47.0933 11.803C47.3372 11.681 47.5812 11.5834 47.8252 11.4614C48.5814 11.1199 49.3377 10.7539 50.1184 10.4368C51.2406 9.94886 52.3628 9.38775 53.485 8.85103C55.5343 7.85079 57.6324 6.82616 59.7549 6.19186C66.8054 4.045 74.5633 3.92301 82.0285 3.80103C84.5414 3.75223 87.1518 3.72784 89.6646 3.60586C89.9329 3.58146 90.1525 3.3619 90.1281 3.09355C90.1037 2.82519 89.8841 2.60562 89.6157 2.63001C87.1029 2.75199 84.517 2.80078 82.0042 2.82518C74.4657 2.94716 66.659 3.06915 59.4621 5.24041C57.2908 5.8991 55.144 6.94814 53.0459 7.97278C51.9481 8.50949 50.8259 9.0706 49.7281 9.53412C48.9474 9.87567 48.1667 10.2172 47.4104 10.5832C47.0933 10.7295 46.7761 10.8759 46.4346 11.0223Z" fill="url(#paint7_linear_714_12889)"/>
<defs>
<linearGradient id="paint0_linear_714_12889" x1="26.1773" y1="44.0523" x2="26.1773" y2="0.873367" gradientUnits="userSpaceOnUse">
<stop stop-color="#B89B60"/>
<stop offset="0.536458" stop-color="#E7D894"/>
<stop offset="1" stop-color="#A8905B"/>
</linearGradient>
<linearGradient id="paint1_linear_714_12889" x1="25.9036" y1="43.9881" x2="25.9036" y2="40.2144" gradientUnits="userSpaceOnUse">
<stop stop-color="#B89B60"/>
<stop offset="0.536458" stop-color="#E7D894"/>
<stop offset="1" stop-color="#A8905B"/>
</linearGradient>
<linearGradient id="paint2_linear_714_12889" x1="17.7224" y1="63.2898" x2="17.7224" y2="57.64" gradientUnits="userSpaceOnUse">
<stop stop-color="#B89B60"/>
<stop offset="0.536458" stop-color="#E7D894"/>
<stop offset="1" stop-color="#A8905B"/>
</linearGradient>
<linearGradient id="paint3_linear_714_12889" x1="18.3998" y1="55.0623" x2="18.3998" y2="52.0949" gradientUnits="userSpaceOnUse">
<stop stop-color="#B89B60"/>
<stop offset="0.536458" stop-color="#E7D894"/>
<stop offset="1" stop-color="#A8905B"/>
</linearGradient>
<linearGradient id="paint4_linear_714_12889" x1="19.4164" y1="49.2759" x2="19.4164" y2="46.5343" gradientUnits="userSpaceOnUse">
<stop stop-color="#B89B60"/>
<stop offset="0.536458" stop-color="#E7D894"/>
<stop offset="1" stop-color="#A8905B"/>
</linearGradient>
<linearGradient id="paint5_linear_714_12889" x1="52.3696" y1="60.1419" x2="52.3696" y2="17.8232" gradientUnits="userSpaceOnUse">
<stop stop-color="#B89B60"/>
<stop offset="0.536458" stop-color="#E7D894"/>
<stop offset="1" stop-color="#A8905B"/>
</linearGradient>
<linearGradient id="paint6_linear_714_12889" x1="33.2248" y1="28.5156" x2="33.2248" y2="14.9012" gradientUnits="userSpaceOnUse">
<stop stop-color="#B89B60"/>
<stop offset="0.536458" stop-color="#E7D894"/>
<stop offset="1" stop-color="#A8905B"/>
</linearGradient>
<linearGradient id="paint7_linear_714_12889" x1="68.7678" y1="11.055" x2="68.7678" y2="2.62816" gradientUnits="userSpaceOnUse">
<stop stop-color="#B89B60"/>
<stop offset="0.536458" stop-color="#E7D894"/>
<stop offset="1" stop-color="#A8905B"/>
</linearGradient>
</defs>
</svg>
