<svg width="91" height="64" viewBox="0 0 91 64" fill="none" xmlns="http://www.w3.org/2000/svg">
<path fill-rule="evenodd" clip-rule="evenodd" d="M67.3595 24.2053C67.0179 23.8393 66.408 23.6442 66.0177 23.4734C65.0906 23.0831 64.2368 22.5463 63.3341 22.1316C63.0414 21.9852 61.724 21.6925 61.9191 21.1801C62.0655 20.8386 62.6022 20.7654 62.9438 20.741C63.944 20.6434 64.9931 20.7654 66.0177 20.7654C68.8721 20.7166 72.0679 19.9603 73.8001 17.6427C73.9221 17.4963 74.166 17.2036 74.41 16.8864C77.5327 18.1306 80.4358 19.9847 82.9486 22.4731C89.6332 29.0845 91.6337 38.4038 89.0233 46.6253C89.9259 40.8191 88.1206 34.6956 83.5097 30.1335C79.1428 25.791 73.1902 23.8149 67.3595 24.2053ZM38.9136 40.4287C39.5235 39.6968 40.109 38.9406 40.5481 38.1843C41.158 37.0864 41.4264 35.8666 41.9387 34.72C42.3778 33.7442 43.1341 32.8903 43.5244 31.8901C43.866 31.0606 43.8904 30.1823 44.2807 29.3529C44.6223 28.621 45.3542 28.1331 45.7445 27.4012C46.4764 26.035 47.379 24.8884 48.3305 23.6686C48.6964 23.1806 48.9892 22.5951 49.5259 22.2536C51.0873 21.3021 52.917 23.4002 54.2831 23.9125C55.4054 24.3273 56.5764 24.6444 57.6742 25.0835C58.4305 25.3763 59.2112 25.7422 60.0162 26.035C58.0646 26.9132 56.2348 28.1087 54.6003 29.6212C46.4764 37.1108 46.2568 49.4797 54.088 57.2377C58.6745 61.7754 65.0419 63.7514 71.1409 63.0684C62.4315 65.2884 52.7706 63.044 46.086 56.4326C41.524 51.9437 39.1575 46.2106 38.9136 40.4287Z" fill="url(#paint0_linear_714_12874)"/>
<path fill-rule="evenodd" clip-rule="evenodd" d="M60.1867 20.4482C60.1867 20.4482 58.6985 22.9366 60.9917 23.8637C63.285 24.7664 68.091 24.6932 68.9449 24.1809C67.4323 23.5466 60.1867 20.4482 60.1867 20.4482Z" fill="url(#paint1_linear_714_12874)"/>
<path fill-rule="evenodd" clip-rule="evenodd" d="M68.0181 5.56657C68.0181 5.56657 69.6526 7.9818 71.8971 6.81078C74.1415 5.63977 76.7275 2.44386 76.9471 0.980095C76.9715 0.955699 68.6768 5.20063 68.0181 5.56657Z" fill="url(#paint2_linear_714_12874)"/>
<path fill-rule="evenodd" clip-rule="evenodd" d="M67.5786 10.7873C67.5786 10.7873 69.1888 13.4465 71.7991 12.4951C74.4339 11.5436 75.6781 10.3238 76.0685 9.46993L67.5786 10.7873Z" fill="url(#paint3_linear_714_12874)"/>
<path fill-rule="evenodd" clip-rule="evenodd" d="M66.4082 15.2518C66.4082 15.2518 66.9205 18.4233 69.0674 18.2282C73.0196 17.8622 74.5565 16.0325 75.2152 15.4714C72.7024 15.2518 66.4082 15.2518 66.4082 15.2518Z" fill="url(#paint4_linear_714_12874)"/>
<path d="M76.4103 0.980099C75.4101 1.80957 70.8236 3.78565 67.1642 5.3958C65.2613 6.22527 63.456 7.00594 62.2362 7.59145C58.6011 9.32358 43.939 13.4465 43.7927 13.4953C43.7439 13.5197 43.6951 13.5197 43.6463 13.5685C42.3045 13.6173 41.0847 13.8857 39.7429 14.154C38.9134 14.3248 38.0596 14.4956 37.0837 14.6419C34.083 15.1055 32.9852 16.3253 31.9117 17.4963C31.6922 17.7403 31.4482 18.0086 31.1798 18.277C29.9844 19.448 28.911 20.7654 27.862 22.0584C27.4716 22.5463 27.0569 23.0342 26.6666 23.5221C19.982 31.4997 12.9315 37.306 0.51388 39.6968C0.245522 39.7456 0.0747494 40.014 0.123542 40.2579C0.172334 40.5263 0.440692 40.697 0.684653 40.6483C13.395 38.2086 20.5919 32.2804 27.4472 24.1321C27.862 23.6441 28.2523 23.1562 28.667 22.6683C29.6917 21.4241 30.7407 20.1067 31.9117 18.9845C32.1801 18.7161 32.4241 18.4477 32.668 18.1794C33.717 17.0328 34.5953 16.0325 37.2545 15.6422C38.2547 15.4958 39.1086 15.3006 39.9625 15.1299C41.6458 14.7883 43.1584 14.4712 44.9637 14.5688C45.4272 14.6907 46.0615 14.7883 46.8422 14.8859C46.9642 14.9103 47.1105 14.9103 47.2569 14.9347C49.5745 15.5202 51.7702 16.6912 53.2828 17.5207C53.6975 17.7403 54.0634 17.9354 54.3562 18.0818C55.0393 18.4233 58.2108 19.9847 61.2847 21.5217C62.968 22.3511 64.6514 23.205 65.92 23.8149C66.5543 24.1321 67.0666 24.376 67.4325 24.5712C67.4569 24.5956 67.5057 24.5956 67.5301 24.62C67.091 25.1811 65.8956 26.0594 62.8461 26.035C59.0891 25.9862 57.2105 24.742 56.1859 24.0589C55.9419 23.8881 55.7468 23.7661 55.5516 23.6929C55.3564 23.6197 55.1369 23.4977 54.8685 23.3758C54.0146 22.9854 52.7461 22.3755 51.1115 21.7168C48.8671 20.8142 47.7204 20.4238 44.0122 20.6678C40.2796 20.9118 37.8888 21.8876 36.9373 23.5465C36.0103 25.1811 36.1079 26.4497 36.303 28.5722L36.303 28.6453C36.4982 30.9386 36.7666 34.0613 34.0342 37.3548C31.253 40.697 30.3016 41.8193 23.8122 43.6246C23.5438 43.6978 23.3975 43.9661 23.4707 44.2345C23.5438 44.5028 23.8122 44.6492 24.0806 44.576C30.8627 42.6975 31.9361 41.4289 34.7905 37.9891C37.7912 34.4028 37.4985 30.8898 37.3033 28.5722L37.3033 28.499C37.1081 26.3521 37.0593 25.3519 37.8156 24.0345C38.5963 22.6683 40.7187 21.8632 44.1098 21.6436C46.8178 21.4729 48.062 21.6436 49.355 22.0828C49.3062 22.1316 49.2574 22.2048 49.2086 22.2536C48.3547 23.2294 46.9398 24.8395 45.7688 26.5473C45.5004 26.718 45.354 27.084 45.2564 27.3523C45.232 27.4011 45.232 27.4499 45.2076 27.4499C45.0857 27.6695 44.8905 27.8403 44.6709 28.0354C44.4514 28.2306 44.2562 28.4258 44.061 28.6941C43.2072 29.8895 42.6704 31.3289 42.1825 32.6951C41.7434 33.8661 41.3043 35.1103 40.6456 36.1594C40.4504 36.4521 40.2796 36.7449 40.0844 37.0376C38.6451 39.3309 37.1569 41.7217 35.3028 43.7466C35.2052 43.8685 34.8393 44.1125 34.4977 44.3321C33.3511 45.1128 32.5948 45.6739 32.5948 46.2838C32.5948 46.4789 32.6924 46.6497 32.8388 46.7473C33.4487 47.1864 36.0835 46.7717 36.2055 46.7473C36.9129 46.5277 38.1815 46.0398 39.5965 45.4543C39.5965 45.4299 39.5965 45.4055 39.5965 45.3811C39.5721 45.0884 39.5233 44.7712 39.4989 44.4541C38.0108 45.064 36.6446 45.6007 35.9371 45.8202C35.6687 45.8934 34.5709 45.991 33.8878 45.991C34.2294 45.6983 34.7417 45.3323 35.0588 45.1371C35.5468 44.7956 35.8639 44.6004 36.0347 44.4053C37.962 42.3072 39.4501 39.892 40.9139 37.5499C41.1091 37.2572 41.2799 36.9644 41.475 36.6717C42.1825 35.5251 42.646 34.2565 43.1096 33.0366C43.6219 31.6705 44.0854 30.3775 44.8661 29.2796C44.9881 29.1089 45.1588 28.9381 45.354 28.7673C45.598 28.5478 45.8663 28.2794 46.0615 27.9623C46.1103 27.8891 46.1347 27.8159 46.1835 27.6939C46.2079 27.6207 46.2567 27.4987 46.3055 27.4011C46.3787 27.3767 46.4518 27.3036 46.5006 27.2304C47.6717 25.5226 49.111 23.8637 49.9893 22.8878C50.1357 22.7171 50.2576 22.5707 50.3796 22.4487C50.526 22.4975 50.6724 22.5707 50.8432 22.6439C52.4289 23.2782 53.6975 23.8881 54.527 24.2784C54.7953 24.4004 55.0149 24.5224 55.2101 24.5956C55.3076 24.6444 55.5028 24.7664 55.698 24.8883C56.7226 25.5714 58.8451 26.962 62.8705 27.0108C67.2862 27.084 68.4328 25.2543 68.6767 24.6444C68.7499 24.5224 68.7499 24.376 68.6767 24.2296C68.6279 24.1077 68.5304 24.0101 68.4084 23.9857C68.1888 23.8881 65.6516 22.6195 63.0412 21.3265C65.1637 21.3509 68.262 21.3265 69.799 20.9118C72.6289 20.1799 74.7026 18.3989 75.4833 16.0081C75.5321 15.8617 75.5077 15.7154 75.4345 15.6178C75.3613 15.4958 75.2393 15.4226 75.0929 15.3982C74.5318 15.3006 73.6536 15.2275 72.6045 15.1787C75.5565 13.5197 76.1907 10.2018 76.1907 10.1775C76.2151 9.95789 76.0932 9.73832 75.898 9.64074C75.8004 9.61634 75.7028 9.59195 75.6296 9.61634C75.4833 9.64074 74.727 9.68953 73.8243 9.76271C73.0681 9.8359 72.141 9.9091 71.1895 9.98229C76.825 7.07914 77.0934 3.17575 77.191 1.78517C77.191 1.66319 77.2154 1.5656 77.2154 1.49241C77.2154 1.46802 77.2154 1.44362 77.2154 1.41923C77.2154 1.24846 77.1178 1.07768 76.9714 1.00449C76.7763 0.833718 76.5567 0.85812 76.4103 0.980099ZM60.0405 15.9106C60.3333 15.9106 61.0163 15.9106 61.9434 15.9106C65.1637 15.9106 71.6287 15.9106 74.3123 16.2033C73.5072 17.9842 71.7994 19.326 69.5306 19.9115C67.3837 20.4726 61.5775 20.2531 60.9432 20.2287C58.1376 18.8381 55.4052 17.4719 54.7709 17.1547C54.5026 17.0328 54.1366 16.8376 53.7463 16.618C53.0144 16.2277 52.0874 15.7154 51.0383 15.2519C54.649 15.569 59.1622 15.8862 60.0405 15.9106ZM69.6526 15.0079C66.969 14.9591 63.9927 14.9591 61.9434 14.9591C61.0163 14.9591 60.3333 14.9591 60.0649 14.9591C58.8451 14.9347 50.4284 14.3004 47.4765 13.9832C53.1608 13.227 65.0905 11.6168 66.2127 11.4217C67.213 11.2509 71.3847 10.9093 73.8731 10.6898C74.361 10.641 74.727 10.6166 75.0197 10.5922C74.605 11.8364 73.2388 14.6419 69.6526 15.0079ZM68.6279 9.98229C68.5304 10.0311 68.4328 10.0799 68.384 10.1775C67.3349 10.275 66.4567 10.3726 66.0664 10.4458C65.1393 10.5922 56.5275 11.7632 50.4528 12.5927C54.9417 11.2509 60.5284 9.49436 62.6509 8.49412C63.8707 7.9086 65.6516 7.12793 67.5545 6.29846C70.9212 4.83469 74.3854 3.32213 76.142 2.32189C75.9224 4.07841 74.8978 7.59147 68.6279 9.98229Z" fill="url(#paint5_linear_714_12874)"/>
<path d="M56.0883 36.3545C55.1612 36.8668 53.9658 37.428 52.5752 38.0867C51.453 38.6234 50.16 39.2333 48.7938 39.9164C48.7694 40.2579 48.7206 40.6239 48.6474 40.9654C48.6474 41.0142 48.623 41.063 48.5986 41.1118C50.2088 40.2823 51.6969 39.5748 52.9899 38.9893C53.1607 38.9161 53.3071 38.8429 53.4535 38.7697C53.3071 39.648 53.4535 40.9654 53.5998 41.3801L53.6242 41.4289C53.8194 42.0876 53.9658 42.5999 54.4537 42.5999C54.7221 42.5999 54.9416 42.3804 54.9416 42.112C54.9416 41.9656 54.8684 41.8193 54.7709 41.7461C54.7465 41.6729 54.6733 41.5021 54.5757 41.1606C54.5513 41.1118 54.5513 41.0874 54.5513 41.063C54.4293 40.6726 54.3073 39.1113 54.5269 38.6478C54.5757 38.5258 54.5757 38.3794 54.5269 38.2574C55.3076 37.8915 55.9907 37.5499 56.5762 37.2328C58.6498 36.135 60.8699 35.7934 63.1875 36.2081C63.2119 36.2081 63.2607 36.2081 63.2851 36.2081C63.3095 36.2325 63.3339 36.2325 63.3583 36.2569C63.4315 36.3301 63.5291 36.3789 63.5779 36.4277C63.9194 36.6473 64.1878 36.8668 64.3829 37.1352C64.6025 37.4524 64.8221 37.9403 64.2366 38.6722C64.1146 38.8185 63.9926 38.9649 63.8218 39.0869C63.6267 39.2577 63.3583 39.404 63.09 39.5504C62.9436 39.6236 62.7728 39.7212 62.6264 39.8188C59.5281 41.7217 57.6984 42.8439 57.0641 43.2586C56.8689 43.3806 56.6006 43.5514 56.3078 43.771C54.5757 44.9176 51.331 47.0644 48.989 48.9185C49.0622 49.0649 49.1353 49.2601 49.2085 49.4065C49.2329 49.4797 49.2573 49.5284 49.2817 49.6016C49.2817 49.626 49.3061 49.6504 49.3061 49.6748C49.3305 49.748 49.3305 49.7968 49.3549 49.87C51.6725 47.9915 55.0636 45.747 56.8445 44.576C57.1617 44.3809 57.43 44.1857 57.6252 44.0637C58.2351 43.649 60.0404 42.5268 63.1387 40.6239C63.2851 40.5507 63.4071 40.4531 63.5535 40.3799C63.8706 40.2091 64.1878 40.0383 64.4561 39.7944C64.6513 39.6236 64.8465 39.4284 64.9928 39.2577C65.7247 38.355 65.7735 37.4036 65.188 36.5497C64.9197 36.1838 64.5537 35.8422 64.0902 35.5738C64.0414 35.5495 63.9926 35.5007 63.9438 35.4763C63.6999 35.2811 63.4315 35.0859 63.1387 35.2079C60.6747 34.8176 58.3083 35.2079 56.0883 36.3545Z" fill="url(#paint6_linear_714_12874)"/>
<path d="M43.6954 53.7733C43.5734 53.6514 43.4514 53.5538 43.3538 53.4074C43.2562 53.261 43.1343 53.1391 43.0367 52.9927C42.7927 53.1147 42.5487 53.2122 42.3048 53.3342C41.5485 53.6758 40.7922 54.0417 40.0116 54.3589C38.8893 54.8468 37.7671 55.4079 36.6449 55.9446C34.5956 56.9448 32.4975 57.9695 30.3751 58.6038C23.3246 60.7507 15.5666 60.8726 8.10138 60.9946C5.58857 61.0434 2.97819 61.0678 0.465382 61.1898C0.197024 61.2142 -0.0225413 61.4337 0.00185485 61.7021C0.026251 61.9705 0.245816 62.19 0.514174 62.1656C3.02698 62.0436 5.61297 61.9949 8.12577 61.9705C15.6642 61.8485 23.471 61.7265 30.6678 59.5552C32.8391 58.8965 34.9859 57.8475 37.084 56.8229C38.1818 56.2862 39.3041 55.725 40.4019 55.2615C41.1826 54.92 41.9632 54.5784 42.7195 54.2125C43.0367 54.0661 43.3538 53.9197 43.6954 53.7733Z" fill="url(#paint7_linear_714_12874)"/>
<defs>
<linearGradient id="paint0_linear_714_12874" x1="65.0909" y1="60.0654" x2="65.0909" y2="16.8864" gradientUnits="userSpaceOnUse">
<stop stop-color="#B89B60"/>
<stop offset="0.536458" stop-color="#E7D894"/>
<stop offset="1" stop-color="#A8905B"/>
</linearGradient>
<linearGradient id="paint1_linear_714_12874" x1="64.431" y1="24.2219" x2="64.431" y2="20.4482" gradientUnits="userSpaceOnUse">
<stop stop-color="#B89B60"/>
<stop offset="0.536458" stop-color="#E7D894"/>
<stop offset="1" stop-color="#A8905B"/>
</linearGradient>
<linearGradient id="paint2_linear_714_12874" x1="72.5818" y1="6.62977" x2="72.5818" y2="0.97999" gradientUnits="userSpaceOnUse">
<stop stop-color="#B89B60"/>
<stop offset="0.536458" stop-color="#E7D894"/>
<stop offset="1" stop-color="#A8905B"/>
</linearGradient>
<linearGradient id="paint3_linear_714_12874" x1="71.9179" y1="12.4373" x2="71.9179" y2="9.46993" gradientUnits="userSpaceOnUse">
<stop stop-color="#B89B60"/>
<stop offset="0.536458" stop-color="#E7D894"/>
<stop offset="1" stop-color="#A8905B"/>
</linearGradient>
<linearGradient id="paint4_linear_714_12874" x1="70.9096" y1="17.9935" x2="70.9096" y2="15.2518" gradientUnits="userSpaceOnUse">
<stop stop-color="#B89B60"/>
<stop offset="0.536458" stop-color="#E7D894"/>
<stop offset="1" stop-color="#A8905B"/>
</linearGradient>
<linearGradient id="paint5_linear_714_12874" x1="39.522" y1="43.1927" x2="39.522" y2="0.882514" gradientUnits="userSpaceOnUse">
<stop stop-color="#B89B60"/>
<stop offset="0.536458" stop-color="#E7D894"/>
<stop offset="1" stop-color="#A8905B"/>
</linearGradient>
<linearGradient id="paint6_linear_714_12874" x1="57.2824" y1="48.6628" x2="57.2824" y2="35.0611" gradientUnits="userSpaceOnUse">
<stop stop-color="#B89B60"/>
<stop offset="0.536458" stop-color="#E7D894"/>
<stop offset="1" stop-color="#A8905B"/>
</linearGradient>
<linearGradient id="paint7_linear_714_12874" x1="22.3332" y1="61.4195" x2="22.3332" y2="52.9927" gradientUnits="userSpaceOnUse">
<stop stop-color="#B89B60"/>
<stop offset="0.536458" stop-color="#E7D894"/>
<stop offset="1" stop-color="#A8905B"/>
</linearGradient>
</defs>
</svg>
