<svg width="20" height="21" viewBox="0 0 20 21" fill="none" xmlns="http://www.w3.org/2000/svg">
<g id="link" clip-path="url(#clip0_1120_75)">
<path id="Vector" d="M12.6609 7.68216C14.977 9.95823 14.9452 13.6074 12.6749 15.8485C12.6706 15.8531 12.6656 15.858 12.6609 15.8626L10.056 18.42C7.7584 20.6755 4.02039 20.6752 1.72317 18.42C-0.574391 16.1648 -0.574391 12.4947 1.72317 10.2395L3.16156 8.82741C3.54301 8.45294 4.19991 8.70182 4.2196 9.23102C4.24472 9.90545 4.36791 10.583 4.59523 11.2374C4.67221 11.4589 4.61721 11.704 4.44858 11.8695L3.94127 12.3676C2.85486 13.4341 2.82079 15.1708 3.8965 16.2477C4.98283 17.3353 6.7684 17.3418 7.86306 16.2671L10.468 13.7102C11.5608 12.6374 11.5563 10.9033 10.468 9.83497C10.3246 9.69439 10.18 9.58517 10.0672 9.50887C9.98731 9.45503 9.92137 9.38362 9.87462 9.30033C9.82786 9.21704 9.80158 9.12417 9.79787 9.02914C9.78252 8.627 9.92765 8.21262 10.2513 7.89485L11.0675 7.09359C11.2815 6.88348 11.6172 6.85768 11.8654 7.02771C12.1496 7.22254 12.4158 7.44153 12.6609 7.68216ZM18.1242 2.31851C15.827 0.063253 12.089 0.0629485 9.7914 2.31851L7.18643 4.87585C7.18178 4.88042 7.17674 4.88537 7.17248 4.88993C4.9022 7.13111 4.87038 10.7802 7.18643 13.0563C7.43153 13.2969 7.69772 13.5159 7.98191 13.7107C8.23008 13.8807 8.56586 13.8549 8.77984 13.6448L9.59599 12.8436C9.91967 12.5258 10.0648 12.1114 10.0495 11.7093C10.0457 11.6143 10.0195 11.5214 9.9727 11.4381C9.92595 11.3548 9.86001 11.2834 9.78016 11.2296C9.66727 11.1533 9.52276 11.044 9.37929 10.9035C8.29106 9.83512 8.28649 8.10107 9.37929 7.02825L11.9843 4.47128C13.0789 3.39663 14.8645 3.4031 15.9508 4.49069C17.0265 5.56767 16.9925 7.3043 15.906 8.37085L15.3987 8.86889C15.2301 9.03443 15.1751 9.27951 15.2521 9.50107C15.4794 10.1554 15.6026 10.833 15.6277 11.5074C15.6475 12.0366 16.3043 12.2855 16.6858 11.911L18.1241 10.4989C20.4218 8.24378 20.4218 4.57369 18.1242 2.31851Z" fill="white"/>
</g>
<defs>
<clipPath id="clip0_1120_75">
<rect width="19.8474" height="19.4845" fill="white" transform="translate(0 0.626953)"/>
</clipPath>
</defs>
</svg>
