<svg width="17" height="16" viewBox="0 0 17 16" fill="none" xmlns="http://www.w3.org/2000/svg">
<g id="user-lock">
<path id="Vector" d="M12.4215 6.74521H11.1666V3.60796C11.1666 2.77591 10.8361 1.97793 10.2478 1.38958C9.65941 0.801234 8.86143 0.470703 8.02938 0.470703C7.19733 0.470703 6.39936 0.801234 5.81101 1.38958C5.22266 1.97793 4.89213 2.77591 4.89213 3.60796V6.74521H3.63723C3.30441 6.74521 2.98522 6.87742 2.74988 7.11276C2.51454 7.3481 2.38232 7.66729 2.38232 8.00011V14.2746C2.38232 14.6074 2.51454 14.9266 2.74988 15.162C2.98522 15.3973 3.30441 15.5295 3.63723 15.5295H12.4215C12.7544 15.5295 13.0736 15.3973 13.3089 15.162C13.5442 14.9266 13.6764 14.6074 13.6764 14.2746V8.00011C13.6764 7.66729 13.5442 7.3481 13.3089 7.11276C13.0736 6.87742 12.7544 6.74521 12.4215 6.74521ZM8.02938 12.3923C7.78119 12.3923 7.53856 12.3187 7.3322 12.1808C7.12583 12.0429 6.96499 11.8469 6.87001 11.6176C6.77502 11.3883 6.75017 11.136 6.79859 10.8926C6.84701 10.6491 6.96653 10.4255 7.14203 10.25C7.31753 10.0745 7.54114 9.955 7.78456 9.90658C8.02799 9.85816 8.28031 9.88301 8.50961 9.97799C8.73892 10.073 8.93491 10.2338 9.0728 10.4402C9.21069 10.6466 9.28429 10.8892 9.28429 11.1374C9.28429 11.4702 9.15207 11.7894 8.91673 12.0247C8.68139 12.2601 8.3622 12.3923 8.02938 12.3923ZM9.28429 6.74521H6.77448V3.60796C6.77448 3.27514 6.90669 2.95595 7.14203 2.72061C7.37737 2.48527 7.69656 2.35306 8.02938 2.35306C8.3622 2.35306 8.68139 2.48527 8.91673 2.72061C9.15207 2.95595 9.28429 3.27514 9.28429 3.60796V6.74521Z" fill="white"/>
</g>
</svg>
