<svg width="162" height="154" viewBox="0 0 162 154" fill="none" xmlns="http://www.w3.org/2000/svg">
<path d="M10.7311 48.2684H151.269V68.1692H144.636V92.0294H148.367V71.9202H155V44.6217H97.479C106.081 43.4755 116.342 41.2875 123.597 37.1198C145.569 24.5125 129.815 -0.285432 111.885 7.52903C105.978 10.0297 100.692 15.1351 96.1316 20.6573C94.4734 22.7412 92.9188 24.9292 91.4678 27.0131C86.3894 34.515 82.8655 41.7043 81.6218 44.5175H80.4818C79.1345 41.7043 75.7143 34.4108 70.6359 27.0131C69.1849 24.9292 67.6302 22.7412 65.972 20.6573C61.3081 15.1351 55.9188 10.0297 50.0112 7.52903C31.9776 -0.389625 16.3277 24.4083 38.2997 37.0156C45.5546 41.1833 55.8151 43.3713 64.4174 44.5175H7V71.9202H13.6331V141H17.3641V68.2734H10.7311V48.2684ZM132.095 22.116C136.552 33.3688 106.91 41.2875 88.8767 44.6217H82.1401C95.0952 31.0766 127.12 9.50869 132.095 22.116ZM29.8011 22.116C34.7759 9.4045 66.9048 31.0766 79.7563 44.5175H73.0196C54.986 41.2875 25.4482 33.3688 29.8011 22.116Z" fill="url(#paint0_linear_1108_144)"/>
<path d="M62.532 99.432C62.4093 100.996 62.3173 102.499 62.256 103.94C62.2253 105.381 62.21 106.485 62.21 107.252C62.21 107.927 62.2253 108.571 62.256 109.184C62.2867 109.797 62.3173 110.319 62.348 110.748H61.29C60.7993 108.172 60.1707 106.133 59.404 104.63C58.668 103.127 57.7787 102.069 56.736 101.456C55.6933 100.812 54.4667 100.49 53.056 100.49H51.998V126.756C51.998 127.983 52.1207 128.903 52.366 129.516C52.642 130.129 53.1327 130.543 53.838 130.758C54.5433 130.942 55.5707 131.049 56.92 131.08V132C55.9693 131.969 54.6967 131.939 53.102 131.908C51.538 131.877 49.8973 131.862 48.18 131.862C46.4933 131.862 44.8987 131.877 43.396 131.908C41.8933 131.939 40.682 131.969 39.762 132V131.08C41.142 131.049 42.1847 130.942 42.89 130.758C43.5953 130.543 44.0707 130.129 44.316 129.516C44.5613 128.903 44.684 127.983 44.684 126.756V100.49H43.672C42.2613 100.49 41.0347 100.812 39.992 101.456C38.9493 102.069 38.06 103.127 37.324 104.63C36.588 106.102 35.944 108.141 35.392 110.748H34.334C34.3953 110.319 34.426 109.797 34.426 109.184C34.4567 108.571 34.472 107.927 34.472 107.252C34.472 106.485 34.4413 105.381 34.38 103.94C34.3493 102.499 34.2727 100.996 34.15 99.432C35.5607 99.4627 37.094 99.4933 38.75 99.524C40.4367 99.5547 42.1233 99.57 43.81 99.57C45.4967 99.57 47.0147 99.57 48.364 99.57C49.744 99.57 51.262 99.57 52.918 99.57C54.6047 99.57 56.2913 99.5547 57.978 99.524C59.6647 99.4933 61.1827 99.4627 62.532 99.432ZM70.0106 132.322C68.6306 132.322 67.4806 132.061 66.5606 131.54C65.6406 131.019 64.9659 130.329 64.5366 129.47C64.1073 128.581 63.8926 127.615 63.8926 126.572C63.8926 125.253 64.1839 124.18 64.7666 123.352C65.3799 122.524 66.1619 121.849 67.1126 121.328C68.0633 120.807 69.0599 120.377 70.1026 120.04C71.1759 119.703 72.1879 119.381 73.1386 119.074C74.1199 118.737 74.9019 118.353 75.4846 117.924C76.0979 117.464 76.4046 116.881 76.4046 116.176V112.588C76.4046 111.791 76.2666 111.085 75.9906 110.472C75.7453 109.828 75.3466 109.337 74.7946 109C74.2733 108.663 73.5833 108.494 72.7246 108.494C72.1113 108.494 71.4979 108.586 70.8846 108.77C70.2713 108.923 69.7653 109.199 69.3666 109.598C70.2253 109.905 70.8846 110.38 71.3446 111.024C71.8353 111.637 72.0806 112.343 72.0806 113.14C72.0806 114.183 71.7126 115.011 70.9766 115.624C70.2713 116.237 69.4279 116.544 68.4466 116.544C67.3426 116.544 66.4993 116.207 65.9166 115.532C65.3646 114.827 65.0886 113.983 65.0886 113.002C65.0886 112.113 65.3033 111.377 65.7326 110.794C66.1926 110.211 66.8213 109.659 67.6186 109.138C68.4773 108.647 69.5046 108.264 70.7006 107.988C71.9273 107.712 73.2459 107.574 74.6566 107.574C76.0673 107.574 77.3399 107.727 78.4746 108.034C79.6093 108.31 80.5599 108.831 81.3266 109.598C82.0319 110.303 82.4919 111.177 82.7066 112.22C82.9213 113.232 83.0286 114.52 83.0286 116.084V128.596C83.0286 129.363 83.1053 129.899 83.2586 130.206C83.4119 130.482 83.6726 130.62 84.0406 130.62C84.3166 130.62 84.5773 130.543 84.8226 130.39C85.0986 130.237 85.3899 130.053 85.6966 129.838L86.1566 130.62C85.5126 131.172 84.7613 131.601 83.9026 131.908C83.0746 132.184 82.1393 132.322 81.0966 132.322C79.9619 132.322 79.0573 132.169 78.3826 131.862C77.7079 131.525 77.2173 131.08 76.9106 130.528C76.6346 129.976 76.4966 129.332 76.4966 128.596C75.7606 129.761 74.8713 130.681 73.8286 131.356C72.7859 132 71.5133 132.322 70.0106 132.322ZM73.2766 129.378C73.8899 129.378 74.4419 129.24 74.9326 128.964C75.4539 128.657 75.9446 128.167 76.4046 127.492V118.062C76.1286 118.522 75.7453 118.936 75.2546 119.304C74.7639 119.672 74.2426 120.055 73.6906 120.454C73.1386 120.822 72.6019 121.236 72.0806 121.696C71.5899 122.156 71.1913 122.723 70.8846 123.398C70.5779 124.073 70.4246 124.885 70.4246 125.836C70.4246 127.032 70.6853 127.921 71.2066 128.504C71.7279 129.087 72.4179 129.378 73.2766 129.378ZM82.4766 95.752L83.2586 96.166C82.8906 97.27 82.3386 98.3893 81.6026 99.524C80.8666 100.628 79.9159 101.563 78.7506 102.33C77.5853 103.066 76.1593 103.434 74.4726 103.434C72.7859 103.434 71.3599 103.066 70.1946 102.33C69.0293 101.563 68.0786 100.628 67.3426 99.524C66.6066 98.3893 66.0546 97.27 65.6866 96.166L66.4686 95.752C66.9286 96.2427 67.5113 96.7487 68.2166 97.27C68.9219 97.7913 69.7806 98.2207 70.7926 98.558C71.8353 98.8953 73.0619 99.064 74.4726 99.064C75.8833 99.064 77.0946 98.8953 78.1066 98.558C79.1493 98.2207 80.0233 97.7913 80.7286 97.27C81.4646 96.7487 82.0473 96.2427 82.4766 95.752ZM74.4266 140.602C73.4146 140.602 72.5866 140.341 71.9426 139.82C71.3293 139.299 71.0226 138.547 71.0226 137.566C71.0226 136.646 71.3293 135.91 71.9426 135.358C72.5559 134.806 73.4146 134.53 74.5186 134.53C75.6226 134.53 76.4659 134.791 77.0486 135.312C77.6313 135.864 77.9226 136.615 77.9226 137.566C77.9226 138.517 77.6006 139.253 76.9566 139.774C76.3433 140.326 75.4999 140.602 74.4266 140.602ZM104.583 107.574C105.871 107.574 106.914 107.743 107.711 108.08C108.539 108.387 109.183 108.816 109.643 109.368C110.134 109.951 110.487 110.702 110.701 111.622C110.947 112.542 111.069 113.784 111.069 115.348V127.722C111.069 129.01 111.284 129.884 111.713 130.344C112.173 130.804 112.94 131.034 114.013 131.034V132C113.431 131.969 112.557 131.939 111.391 131.908C110.226 131.847 109.076 131.816 107.941 131.816C106.776 131.816 105.626 131.847 104.491 131.908C103.387 131.939 102.544 131.969 101.961 132V131.034C102.881 131.034 103.525 130.804 103.893 130.344C104.261 129.884 104.445 129.01 104.445 127.722V113.416C104.445 112.649 104.369 111.99 104.215 111.438C104.062 110.855 103.786 110.411 103.387 110.104C102.989 109.767 102.391 109.598 101.593 109.598C100.765 109.598 99.9985 109.828 99.2932 110.288C98.6185 110.748 98.0665 111.392 97.6372 112.22C97.2385 113.017 97.0392 113.922 97.0392 114.934V127.722C97.0392 129.01 97.2232 129.884 97.5912 130.344C97.9899 130.804 98.6339 131.034 99.5232 131.034V132C98.9712 131.969 98.1585 131.939 97.0852 131.908C96.0425 131.847 94.9539 131.816 93.8192 131.816C92.6539 131.816 91.4579 131.847 90.2312 131.908C89.0045 131.939 88.0845 131.969 87.4712 132V131.034C88.5445 131.034 89.2959 130.804 89.7252 130.344C90.1852 129.884 90.4152 129.01 90.4152 127.722V113.232C90.4152 111.852 90.2005 110.84 89.7712 110.196C89.3725 109.521 88.6059 109.184 87.4712 109.184V108.218C88.4525 108.31 89.4032 108.356 90.3232 108.356C91.6112 108.356 92.8072 108.31 93.9112 108.218C95.0459 108.095 96.0885 107.927 97.0392 107.712V111.852C97.8059 110.288 98.8485 109.184 100.167 108.54C101.486 107.896 102.958 107.574 104.583 107.574ZM124.337 140.648C122.435 140.648 120.733 140.479 119.231 140.142C117.759 139.835 116.593 139.345 115.735 138.67C114.907 138.026 114.493 137.229 114.493 136.278C114.493 135.327 114.922 134.469 115.781 133.702C116.639 132.966 117.912 132.383 119.599 131.954L120.013 132.69C119.43 133.15 119.001 133.641 118.725 134.162C118.479 134.714 118.357 135.281 118.357 135.864C118.357 137.152 118.939 138.133 120.105 138.808C121.301 139.513 122.911 139.866 124.935 139.866C126.315 139.866 127.541 139.682 128.615 139.314C129.719 138.946 130.577 138.394 131.191 137.658C131.835 136.922 132.157 136.017 132.157 134.944C132.157 134.024 131.819 133.242 131.145 132.598C130.47 131.985 129.121 131.678 127.097 131.678H124.245C122.987 131.678 121.883 131.54 120.933 131.264C120.013 130.988 119.292 130.559 118.771 129.976C118.249 129.363 117.989 128.596 117.989 127.676C117.989 126.388 118.495 125.253 119.507 124.272C120.519 123.291 122.021 122.371 124.015 121.512L124.475 121.88C123.892 122.248 123.34 122.647 122.819 123.076C122.328 123.475 122.083 123.996 122.083 124.64C122.083 125.621 122.696 126.112 123.923 126.112H128.937C130.623 126.112 132.126 126.311 133.445 126.71C134.794 127.109 135.852 127.768 136.619 128.688C137.416 129.577 137.815 130.743 137.815 132.184C137.815 133.687 137.324 135.082 136.343 136.37C135.392 137.658 133.92 138.685 131.927 139.452C129.933 140.249 127.403 140.648 124.337 140.648ZM124.797 122.202C123.049 122.202 121.485 121.941 120.105 121.42C118.725 120.899 117.636 120.101 116.839 119.028C116.041 117.955 115.643 116.575 115.643 114.888C115.643 113.201 116.041 111.821 116.839 110.748C117.636 109.644 118.725 108.847 120.105 108.356C121.485 107.835 123.049 107.574 124.797 107.574C126.545 107.574 128.109 107.835 129.489 108.356C130.869 108.847 131.957 109.644 132.755 110.748C133.552 111.821 133.951 113.201 133.951 114.888C133.951 116.575 133.552 117.955 132.755 119.028C131.957 120.101 130.869 120.899 129.489 121.42C128.109 121.941 126.545 122.202 124.797 122.202ZM124.797 121.374C125.625 121.374 126.269 120.914 126.729 119.994C127.189 119.043 127.419 117.341 127.419 114.888C127.419 112.435 127.189 110.748 126.729 109.828C126.269 108.877 125.625 108.402 124.797 108.402C123.999 108.402 123.355 108.877 122.865 109.828C122.405 110.748 122.175 112.435 122.175 114.888C122.175 117.341 122.405 119.043 122.865 119.994C123.355 120.914 123.999 121.374 124.797 121.374ZM131.973 111.53L131.053 111.208C131.513 110.012 132.249 109.015 133.261 108.218C134.303 107.421 135.423 107.022 136.619 107.022C137.6 107.022 138.336 107.298 138.827 107.85C139.348 108.371 139.609 109.061 139.609 109.92C139.609 110.84 139.363 111.53 138.873 111.99C138.382 112.419 137.83 112.634 137.217 112.634C136.695 112.634 136.205 112.45 135.745 112.082C135.315 111.714 135.07 111.162 135.009 110.426C134.947 109.659 135.208 108.678 135.791 107.482L136.113 107.758C134.947 108.187 134.073 108.693 133.491 109.276C132.908 109.828 132.402 110.579 131.973 111.53Z" fill="url(#paint1_linear_1108_144)"/>
<path d="M75.976 85.592L76.588 85.762C76.4067 87.0087 76.1233 88.074 75.738 88.958C75.3527 89.8647 74.854 90.5673 74.242 91.066C73.766 91.4513 73.1427 91.7687 72.372 92.018C71.624 92.2673 70.7853 92.392 69.856 92.392C68.6093 92.392 67.3853 92.1993 66.184 91.814C65.0053 91.4287 63.804 90.9527 62.58 90.386C61.356 89.842 60.064 89.3093 58.704 88.788C58.5453 88.7427 58.3867 88.686 58.228 88.618C58.092 88.5727 57.9787 88.55 57.888 88.55C57.4573 88.754 56.9813 88.924 56.46 89.06C55.9613 89.196 55.4853 89.264 55.032 89.264C54.5787 89.264 54.1933 89.196 53.876 89.06C53.5813 88.924 53.434 88.6973 53.434 88.38C53.434 87.768 54.0573 87.462 55.304 87.462C56.0973 87.462 56.9587 87.6207 57.888 87.938C58.7267 87.7113 59.4407 87.4507 60.03 87.156C60.642 86.884 61.2653 86.6233 61.9 86.374C62.5573 86.1247 63.3507 85.966 64.28 85.898L64.314 86.442C63.5887 86.51 62.9653 86.6347 62.444 86.816C61.9453 87.02 61.4353 87.2353 60.914 87.462C60.3927 87.6887 59.7807 87.904 59.078 88.108C60.6873 88.2213 62.1833 88.3347 63.566 88.448C64.9487 88.584 66.2293 88.6633 67.408 88.686C68.5867 88.7313 69.652 88.686 70.604 88.55C72.0093 88.3913 73.12 88.0853 73.936 87.632C74.752 87.1787 75.432 86.4987 75.976 85.592ZM63.498 61.452C65.9007 61.452 67.9973 61.9393 69.788 62.914C71.6013 63.8887 73.0067 65.294 74.004 67.13C75.0013 68.9433 75.5 71.1533 75.5 73.76C75.5 76.2987 74.99 78.52 73.97 80.424C72.95 82.328 71.522 83.8127 69.686 84.878C67.8727 85.9433 65.7987 86.476 63.464 86.476C61.0613 86.476 58.9533 85.9887 57.14 85.014C55.3493 84.0393 53.9553 82.634 52.958 80.798C51.9607 78.962 51.462 76.752 51.462 74.168C51.462 71.6293 51.972 69.408 52.992 67.504C54.0347 65.6 55.4513 64.1153 57.242 63.05C59.0553 61.9847 61.1407 61.452 63.498 61.452ZM63.362 62.064C62.0927 62.064 60.982 62.574 60.03 63.594C59.1007 64.614 58.3753 66.0193 57.854 67.81C57.3553 69.6007 57.106 71.6747 57.106 74.032C57.106 76.4347 57.3893 78.5313 57.956 80.322C58.5453 82.09 59.3273 83.4613 60.302 84.436C61.2993 85.388 62.3987 85.864 63.6 85.864C64.8693 85.864 65.9687 85.354 66.898 84.334C67.85 83.314 68.5753 81.9087 69.074 80.118C69.5953 78.3047 69.856 76.2307 69.856 73.896C69.856 71.4707 69.5613 69.374 68.972 67.606C68.4053 65.838 67.6233 64.478 66.626 63.526C65.6513 62.5513 64.5633 62.064 63.362 62.064ZM94.7089 68.048V82.294C94.7089 83.314 94.8676 84.0733 95.1849 84.572C95.5023 85.048 96.0689 85.286 96.8849 85.286V86C96.1823 85.932 95.4796 85.898 94.7769 85.898C93.8249 85.898 92.9409 85.932 92.1249 86C91.3089 86.068 90.5383 86.1927 89.8129 86.374V83.314C89.2689 84.4473 88.5096 85.2633 87.5349 85.762C86.5829 86.238 85.5176 86.476 84.3389 86.476C83.3869 86.476 82.6163 86.3513 82.0269 86.102C81.4376 85.8527 80.9729 85.5353 80.6329 85.15C80.2476 84.7193 79.9756 84.1527 79.8169 83.45C79.6583 82.7473 79.5789 81.8407 79.5789 80.73V72.128C79.5789 71.108 79.4203 70.36 79.1029 69.884C78.8083 69.3853 78.2416 69.136 77.4029 69.136V68.422C78.1283 68.49 78.8309 68.524 79.5109 68.524C80.4629 68.524 81.3469 68.49 82.1629 68.422C83.0016 68.3313 83.7723 68.2067 84.4749 68.048V82.124C84.4749 82.6907 84.5203 83.1893 84.6109 83.62C84.7243 84.0507 84.9283 84.3907 85.2229 84.64C85.5176 84.8667 85.9483 84.98 86.5149 84.98C87.1269 84.98 87.6709 84.81 88.1469 84.47C88.6456 84.13 89.0423 83.6653 89.3369 83.076C89.6543 82.464 89.8129 81.784 89.8129 81.036V72.128C89.8129 71.108 89.6543 70.36 89.3369 69.884C89.0423 69.3853 88.4756 69.136 87.6369 69.136V68.422C88.3623 68.49 89.0649 68.524 89.7449 68.524C90.6969 68.524 91.5809 68.49 92.3969 68.422C93.2356 68.3313 94.0063 68.2067 94.7089 68.048ZM103.088 86.238C102.068 86.238 101.218 86.0453 100.538 85.66C99.8581 85.2747 99.3594 84.7647 99.0421 84.13C98.7247 83.4727 98.5661 82.7587 98.5661 81.988C98.5661 81.0133 98.7814 80.22 99.2121 79.608C99.6654 78.996 100.243 78.4973 100.946 78.112C101.649 77.7267 102.385 77.4093 103.156 77.16C103.949 76.9107 104.697 76.6727 105.4 76.446C106.125 76.1967 106.703 75.9133 107.134 75.596C107.587 75.256 107.814 74.8253 107.814 74.304V71.652C107.814 71.0627 107.712 70.5413 107.508 70.088C107.327 69.612 107.032 69.2493 106.624 69C106.239 68.7507 105.729 68.626 105.094 68.626C104.641 68.626 104.187 68.694 103.734 68.83C103.281 68.9433 102.907 69.1473 102.612 69.442C103.247 69.6687 103.734 70.02 104.074 70.496C104.437 70.9493 104.618 71.4707 104.618 72.06C104.618 72.8307 104.346 73.4427 103.802 73.896C103.281 74.3493 102.657 74.576 101.932 74.576C101.116 74.576 100.493 74.3267 100.062 73.828C99.6541 73.3067 99.4501 72.6833 99.4501 71.958C99.4501 71.3007 99.6087 70.7567 99.9261 70.326C100.266 69.8953 100.731 69.4873 101.32 69.102C101.955 68.7393 102.714 68.456 103.598 68.252C104.505 68.048 105.479 67.946 106.522 67.946C107.565 67.946 108.505 68.0593 109.344 68.286C110.183 68.49 110.885 68.8753 111.452 69.442C111.973 69.9633 112.313 70.6093 112.472 71.38C112.631 72.128 112.71 73.08 112.71 74.236V83.484C112.71 84.0507 112.767 84.4473 112.88 84.674C112.993 84.878 113.186 84.98 113.458 84.98C113.662 84.98 113.855 84.9233 114.036 84.81C114.24 84.6967 114.455 84.5607 114.682 84.402L115.022 84.98C114.546 85.388 113.991 85.7053 113.356 85.932C112.744 86.136 112.053 86.238 111.282 86.238C110.443 86.238 109.775 86.1247 109.276 85.898C108.777 85.6487 108.415 85.32 108.188 84.912C107.984 84.504 107.882 84.028 107.882 83.484C107.338 84.3453 106.681 85.0253 105.91 85.524C105.139 86 104.199 86.238 103.088 86.238ZM105.502 84.062C105.955 84.062 106.363 83.96 106.726 83.756C107.111 83.5293 107.474 83.1667 107.814 82.668V75.698C107.61 76.038 107.327 76.344 106.964 76.616C106.601 76.888 106.216 77.1713 105.808 77.466C105.4 77.738 105.003 78.044 104.618 78.384C104.255 78.724 103.961 79.1433 103.734 79.642C103.507 80.1407 103.394 80.7413 103.394 81.444C103.394 82.328 103.587 82.9853 103.972 83.416C104.357 83.8467 104.867 84.062 105.502 84.062ZM102.17 58.222C102.578 57.8593 103.054 57.7233 103.598 57.814C104.165 57.9047 104.618 58.1653 104.958 58.596C105.343 59.0267 105.649 59.5367 105.876 60.126C106.103 60.7153 106.375 61.4293 106.692 62.268C107.032 63.084 107.531 64.104 108.188 65.328L107.814 65.634C106.817 64.7047 105.955 63.9793 105.23 63.458C104.527 62.9367 103.915 62.4947 103.394 62.132C102.895 61.7693 102.453 61.3613 102.068 60.908C101.705 60.4547 101.535 59.9787 101.558 59.48C101.581 58.9587 101.785 58.5393 102.17 58.222Z" fill="url(#paint2_linear_1108_144)"/>
<defs>
<linearGradient id="paint0_linear_1108_144" x1="19.0652" y1="75" x2="155" y2="75" gradientUnits="userSpaceOnUse">
<stop stop-color="#F4BD39"/>
<stop offset="0.489583" stop-color="#F7E893"/>
<stop offset="1" stop-color="#F4BD39"/>
</linearGradient>
<linearGradient id="paint1_linear_1108_144" x1="41.7228" y1="113.578" x2="140" y2="113.578" gradientUnits="userSpaceOnUse">
<stop stop-color="#F4BD39"/>
<stop offset="0.489583" stop-color="#F7E893"/>
<stop offset="1" stop-color="#F4BD39"/>
</linearGradient>
<linearGradient id="paint2_linear_1108_144" x1="55.3804" y1="72.3111" x2="116" y2="72.3111" gradientUnits="userSpaceOnUse">
<stop stop-color="#F4BD39"/>
<stop offset="0.489583" stop-color="#F7E893"/>
<stop offset="1" stop-color="#F4BD39"/>
</linearGradient>
</defs>
</svg>
