<svg width="41" height="41" viewBox="0 0 41 41" fill="none" xmlns="http://www.w3.org/2000/svg">
<g id="Group 1557">
<rect id="Rectangle 380" x="1.14258" y="0.554443" width="38.6947" height="39.0288" rx="19.3474" fill="#121212" stroke="#6672F2"/>
<g id="Tik Tok">
<path id="Path" fill-rule="evenodd" clip-rule="evenodd" d="M18.951 17.793V16.9573C18.6634 16.9163 18.3734 16.8949 18.0829 16.8936C14.5309 16.8936 11.6411 19.8082 11.6411 23.3901C11.6411 25.5873 12.7301 27.5323 14.3913 28.7085C13.279 27.5089 12.6606 25.9278 12.6615 24.2856C12.6615 20.7547 15.469 17.8754 18.951 17.793Z" fill="#00F2EA"/>
<path id="Shape" fill-rule="evenodd" clip-rule="evenodd" d="M19.103 27.252C20.6878 27.252 21.9806 25.9807 22.0395 24.3963L22.0448 10.2527H24.6071C24.5524 9.95735 24.5248 9.65759 24.5244 9.35718H21.025L21.0191 23.5013C20.9608 25.0852 19.6674 26.356 18.0831 26.356C17.6075 26.3562 17.139 26.2394 16.7183 26.0155C16.9899 26.3977 17.3479 26.7092 17.7625 26.9242C18.1772 27.1392 18.6367 27.2516 19.103 27.252ZM29.3935 15.0534V14.2673C28.4518 14.2682 27.5303 13.992 26.7421 13.4724C27.4332 14.2748 28.3637 14.8295 29.394 15.0534" fill="#00F2EA"/>
<path id="Shape_2" fill-rule="evenodd" clip-rule="evenodd" d="M26.742 13.4717C25.9695 12.5804 25.5441 11.4367 25.5445 10.2529H24.6069C24.7283 10.9072 24.9801 11.5299 25.3471 12.0831C25.7142 12.6364 26.1887 13.1088 26.742 13.4717ZM18.083 20.4226C17.303 20.4236 16.5553 20.7364 16.0037 21.2926C15.4523 21.8487 15.142 22.6027 15.1411 23.3892C15.1416 23.9303 15.2888 24.4609 15.5666 24.9237C15.8445 25.3865 16.2425 25.764 16.7176 26.0153C16.3558 25.5122 16.161 24.9067 16.161 24.2852C16.1618 23.4986 16.4719 22.7445 17.0235 22.1882C17.575 21.6319 18.3228 21.319 19.1029 21.3181C19.406 21.3181 19.6965 21.3687 19.9709 21.4555V17.8525C19.6833 17.8114 19.3933 17.7901 19.1029 17.7887C19.0517 17.7887 19.0016 17.7916 18.951 17.7926V20.56C18.6703 20.4699 18.3776 20.4236 18.083 20.4226Z" fill="#FF004F"/>
<path id="Path_2" fill-rule="evenodd" clip-rule="evenodd" d="M29.3933 15.0532V17.7961C27.5784 17.7961 25.8972 17.2107 24.5241 16.2171V23.3893C24.5241 26.9712 21.6348 29.8853 18.0828 29.8853C16.7101 29.8853 15.4373 29.4486 14.3911 28.7077C14.9926 29.3618 15.7215 29.8835 16.5323 30.2403C17.343 30.597 18.2181 30.781 19.1026 30.7808C22.6547 30.7808 25.5445 27.8667 25.5445 24.2853V17.1131C26.963 18.1417 28.6665 18.6941 30.4137 18.6921V15.1622C30.0633 15.1622 29.7227 15.1239 29.3933 15.0527" fill="#FF004F"/>
<path id="Path_3" fill-rule="evenodd" clip-rule="evenodd" d="M24.5244 23.3892V16.2171C25.9429 17.2458 27.6464 17.7982 29.3936 17.7961V15.0532C28.3635 14.8291 27.4331 14.2743 26.7422 13.4717C26.1889 13.1088 25.7143 12.6364 25.3473 12.0831C24.9804 11.5299 24.7285 10.9072 24.6071 10.2529H22.0448L22.0394 24.3966C21.9806 25.9805 20.6877 27.2518 19.1029 27.2518C18.6367 27.2513 18.1772 27.1389 17.7625 26.9239C17.3479 26.7089 16.9899 26.3975 16.7182 26.0153C16.243 25.7641 15.8449 25.3867 15.5669 24.9238C15.289 24.461 15.1418 23.9303 15.1412 23.3892C15.1421 22.6027 15.4523 21.8487 16.0039 21.2925C16.5554 20.7364 17.3031 20.4235 18.0831 20.4226C18.3857 20.4226 18.6762 20.4727 18.9511 20.56V17.7926C15.4692 17.8751 12.6616 20.7543 12.6616 24.2852C12.6616 25.9927 13.3195 27.5472 14.3914 28.7081C15.472 29.4753 16.7616 29.8864 18.0831 29.8853C21.6351 29.8853 24.5244 26.9711 24.5244 23.3892Z" fill="white"/>
</g>
</g>
</svg>
